<mxfile host="Electron" modified="2023-05-01T01:57:06.220Z" agent="Mozilla/5.0 (Windows NT 10.0; Win64; x64) AppleWebKit/537.36 (KHTML, like Gecko) draw.io/21.2.1 Chrome/112.0.5615.87 Electron/24.1.2 Safari/537.36" etag="rYe-rUmPm4aWPa24x_FZ" version="21.2.1" type="device">
  <diagram id="iAgpITnYpc6oV14jk1i1" name="Page-1">
    <mxGraphModel dx="1687" dy="993" grid="1" gridSize="10" guides="1" tooltips="1" connect="1" arrows="1" fold="1" page="1" pageScale="1" pageWidth="850" pageHeight="1100" math="0" shadow="0">
      <root>
        <mxCell id="0" />
        <mxCell id="1" parent="0" />
        <mxCell id="Dbm6p59UZtZps0MxOLi0-1" value="AChunkBase : AActor" style="swimlane;fontStyle=1;align=center;verticalAlign=top;childLayout=stackLayout;horizontal=1;startSize=26;horizontalStack=0;resizeParent=1;resizeParentMax=0;resizeLast=0;collapsible=1;marginBottom=0;" parent="1" vertex="1">
          <mxGeometry x="390" y="354" width="290" height="240" as="geometry">
            <mxRectangle x="370" y="354" width="170" height="30" as="alternateBounds" />
          </mxGeometry>
        </mxCell>
        <mxCell id="Dbm6p59UZtZps0MxOLi0-2" value="+ Frequency : float&#xa;+ Material : TObjectPtr&lt;UMaterialInterface&gt;&#xa;+ Size : int&#xa;+ State : EBlock&#xa;+ Type : States&#xa;# Mesh : TObjectPtr&lt;UProceduralMeshComponent&gt;&#xa;# MeshData : FChunkMeshData&#xa;# Noise : FastNoiseLite*&#xa;# VertexCount : int" style="text;strokeColor=none;fillColor=none;align=left;verticalAlign=top;spacingLeft=4;spacingRight=4;overflow=hidden;rotatable=0;points=[[0,0.5],[1,0.5]];portConstraint=eastwest;" parent="Dbm6p59UZtZps0MxOLi0-1" vertex="1">
          <mxGeometry y="26" width="290" height="134" as="geometry" />
        </mxCell>
        <mxCell id="Dbm6p59UZtZps0MxOLi0-3" value="" style="line;strokeWidth=1;fillColor=none;align=left;verticalAlign=middle;spacingTop=-1;spacingLeft=3;spacingRight=3;rotatable=0;labelPosition=right;points=[];portConstraint=eastwest;strokeColor=inherit;" parent="Dbm6p59UZtZps0MxOLi0-1" vertex="1">
          <mxGeometry y="160" width="290" height="8" as="geometry" />
        </mxCell>
        <mxCell id="Dbm6p59UZtZps0MxOLi0-4" value="- ApplyMesh()&#xa;- ClearMesh()&#xa;- GenerateHeightMap()&#xa;# BeginPlay()&#xa;" style="text;strokeColor=none;fillColor=none;align=left;verticalAlign=top;spacingLeft=4;spacingRight=4;overflow=hidden;rotatable=0;points=[[0,0.5],[1,0.5]];portConstraint=eastwest;" parent="Dbm6p59UZtZps0MxOLi0-1" vertex="1">
          <mxGeometry y="168" width="290" height="72" as="geometry" />
        </mxCell>
        <mxCell id="Dbm6p59UZtZps0MxOLi0-5" value="&lt;&lt;struct&gt;&gt;&#xa;FChunkMeshData" style="swimlane;fontStyle=1;align=center;verticalAlign=top;childLayout=stackLayout;horizontal=1;startSize=40;horizontalStack=0;resizeParent=1;resizeParentMax=0;resizeLast=0;collapsible=1;marginBottom=0;" parent="1" vertex="1">
          <mxGeometry x="270" y="700" width="290" height="154" as="geometry">
            <mxRectangle x="320" y="580" width="140" height="40" as="alternateBounds" />
          </mxGeometry>
        </mxCell>
        <mxCell id="Dbm6p59UZtZps0MxOLi0-6" value="+ Colors : TArray&lt;FColor&gt;&#xa;+ Normals : TArray&lt;FVector&gt;&#xa;+ Triangles : TArray&lt;int&gt;&#xa;+ UV0 : TArray&lt;FVector2D&gt;&#xa;+ Vertices : TArray&lt;FVector&gt;" style="text;strokeColor=none;fillColor=none;align=left;verticalAlign=top;spacingLeft=4;spacingRight=4;overflow=hidden;rotatable=0;points=[[0,0.5],[1,0.5]];portConstraint=eastwest;" parent="Dbm6p59UZtZps0MxOLi0-5" vertex="1">
          <mxGeometry y="40" width="290" height="80" as="geometry" />
        </mxCell>
        <mxCell id="Dbm6p59UZtZps0MxOLi0-7" value="" style="line;strokeWidth=1;fillColor=none;align=left;verticalAlign=middle;spacingTop=-1;spacingLeft=3;spacingRight=3;rotatable=0;labelPosition=right;points=[];portConstraint=eastwest;strokeColor=inherit;" parent="Dbm6p59UZtZps0MxOLi0-5" vertex="1">
          <mxGeometry y="120" width="290" height="8" as="geometry" />
        </mxCell>
        <mxCell id="Dbm6p59UZtZps0MxOLi0-8" value="+ Clear()" style="text;strokeColor=none;fillColor=none;align=left;verticalAlign=top;spacingLeft=4;spacingRight=4;overflow=hidden;rotatable=0;points=[[0,0.5],[1,0.5]];portConstraint=eastwest;" parent="Dbm6p59UZtZps0MxOLi0-5" vertex="1">
          <mxGeometry y="128" width="290" height="26" as="geometry" />
        </mxCell>
        <mxCell id="Dbm6p59UZtZps0MxOLi0-9" value="ACWorld : AActor" style="swimlane;fontStyle=1;align=center;verticalAlign=top;childLayout=stackLayout;horizontal=1;startSize=26;horizontalStack=0;resizeParent=1;resizeParentMax=0;resizeLast=0;collapsible=1;marginBottom=0;" parent="1" vertex="1">
          <mxGeometry x="782.5" y="40" width="250" height="210" as="geometry">
            <mxRectangle x="782.5" y="40" width="140" height="30" as="alternateBounds" />
          </mxGeometry>
        </mxCell>
        <mxCell id="Dbm6p59UZtZps0MxOLi0-10" value="- ChunkCount : int&#xa;+ Chunk : TSubclassOf&lt;AChunkBase&gt;&#xa;+ DrawDistance : int&#xa;+ Frequency : float&#xa;+ Material : TObjectPtr&lt;UMaterialInterface&gt;&#xa;+ mChain : MarkovChain*&#xa;+ Size : int" style="text;strokeColor=none;fillColor=none;align=left;verticalAlign=top;spacingLeft=4;spacingRight=4;overflow=hidden;rotatable=0;points=[[0,0.5],[1,0.5]];portConstraint=eastwest;" parent="Dbm6p59UZtZps0MxOLi0-9" vertex="1">
          <mxGeometry y="26" width="250" height="114" as="geometry" />
        </mxCell>
        <mxCell id="Dbm6p59UZtZps0MxOLi0-11" value="" style="line;strokeWidth=1;fillColor=none;align=left;verticalAlign=middle;spacingTop=-1;spacingLeft=3;spacingRight=3;rotatable=0;labelPosition=right;points=[];portConstraint=eastwest;strokeColor=inherit;" parent="Dbm6p59UZtZps0MxOLi0-9" vertex="1">
          <mxGeometry y="140" width="250" height="8" as="geometry" />
        </mxCell>
        <mxCell id="Dbm6p59UZtZps0MxOLi0-12" value="- Generate2DWorld&#xa;+ ACWorld()&#xa;# BeginPlay()&#xa;" style="text;strokeColor=none;fillColor=none;align=left;verticalAlign=top;spacingLeft=4;spacingRight=4;overflow=hidden;rotatable=0;points=[[0,0.5],[1,0.5]];portConstraint=eastwest;" parent="Dbm6p59UZtZps0MxOLi0-9" vertex="1">
          <mxGeometry y="148" width="250" height="62" as="geometry" />
        </mxCell>
        <mxCell id="Dbm6p59UZtZps0MxOLi0-13" value="MarkovChain" style="swimlane;fontStyle=1;align=center;verticalAlign=top;childLayout=stackLayout;horizontal=1;startSize=26;horizontalStack=0;resizeParent=1;resizeParentMax=0;resizeLast=0;collapsible=1;marginBottom=0;" parent="1" vertex="1">
          <mxGeometry x="1170" y="340" width="180" height="210" as="geometry">
            <mxRectangle x="1170" y="310" width="120" height="30" as="alternateBounds" />
          </mxGeometry>
        </mxCell>
        <mxCell id="Dbm6p59UZtZps0MxOLi0-14" value="- current_state : int&#xa;- next_state : int&#xa;- size : int&#xa;- transition_matrix : double[5][5]&#xa;+ states : TArray&lt;int&gt;" style="text;strokeColor=none;fillColor=none;align=left;verticalAlign=top;spacingLeft=4;spacingRight=4;overflow=hidden;rotatable=0;points=[[0,0.5],[1,0.5]];portConstraint=eastwest;" parent="Dbm6p59UZtZps0MxOLi0-13" vertex="1">
          <mxGeometry y="26" width="180" height="84" as="geometry" />
        </mxCell>
        <mxCell id="Dbm6p59UZtZps0MxOLi0-15" value="" style="line;strokeWidth=1;fillColor=none;align=left;verticalAlign=middle;spacingTop=-1;spacingLeft=3;spacingRight=3;rotatable=0;labelPosition=right;points=[];portConstraint=eastwest;strokeColor=inherit;" parent="Dbm6p59UZtZps0MxOLi0-13" vertex="1">
          <mxGeometry y="110" width="180" height="8" as="geometry" />
        </mxCell>
        <mxCell id="Dbm6p59UZtZps0MxOLi0-16" value="+ GenerateStatesArray()&#xa;+ GetSize() : int&#xa;+ GetStates() : TArray&lt;int&gt;&#xa;+ NextState() : int&#xa;+ SetNumStates()" style="text;strokeColor=none;fillColor=none;align=left;verticalAlign=top;spacingLeft=4;spacingRight=4;overflow=hidden;rotatable=0;points=[[0,0.5],[1,0.5]];portConstraint=eastwest;" parent="Dbm6p59UZtZps0MxOLi0-13" vertex="1">
          <mxGeometry y="118" width="180" height="92" as="geometry" />
        </mxCell>
        <mxCell id="Dbm6p59UZtZps0MxOLi0-17" value="&lt;&lt;enum&gt;&gt;&#xa;EBlock" style="swimlane;fontStyle=1;align=center;verticalAlign=top;childLayout=stackLayout;horizontal=1;startSize=40;horizontalStack=0;resizeParent=1;resizeParentMax=0;resizeLast=0;collapsible=1;marginBottom=0;" parent="1" vertex="1">
          <mxGeometry x="827.5" y="740" width="160" height="130" as="geometry" />
        </mxCell>
        <mxCell id="Dbm6p59UZtZps0MxOLi0-18" value="Null&#xa;Air&#xa;Grassland&#xa;Village&#xa;AbandonedBuilding&#xa;Pond" style="text;strokeColor=none;fillColor=none;align=left;verticalAlign=top;spacingLeft=4;spacingRight=4;overflow=hidden;rotatable=0;points=[[0,0.5],[1,0.5]];portConstraint=eastwest;" parent="Dbm6p59UZtZps0MxOLi0-17" vertex="1">
          <mxGeometry y="40" width="160" height="90" as="geometry" />
        </mxCell>
        <mxCell id="SjIH6w3jb1fZlNOT7QyN-1" value="AChunk : AChunkBase" style="swimlane;fontStyle=1;align=center;verticalAlign=top;childLayout=stackLayout;horizontal=1;startSize=26;horizontalStack=0;resizeParent=1;resizeParentMax=0;resizeLast=0;collapsible=1;marginBottom=0;" parent="1" vertex="1">
          <mxGeometry x="795" y="324" width="225" height="300" as="geometry">
            <mxRectangle x="795" y="324" width="170" height="30" as="alternateBounds" />
          </mxGeometry>
        </mxCell>
        <mxCell id="SjIH6w3jb1fZlNOT7QyN-2" value="- BlockTriangeData : const int[24]&#xa;- BlockVertexData : const FVector[8]&#xa;- ChunkState : EBlock&#xa;- ChunkType : States&#xa;# Blocks : TArray&lt;EBlock&gt;" style="text;strokeColor=none;fillColor=none;align=left;verticalAlign=top;spacingLeft=4;spacingRight=4;overflow=hidden;rotatable=0;points=[[0,0.5],[1,0.5]];portConstraint=eastwest;" parent="SjIH6w3jb1fZlNOT7QyN-1" vertex="1">
          <mxGeometry y="26" width="225" height="84" as="geometry" />
        </mxCell>
        <mxCell id="SjIH6w3jb1fZlNOT7QyN-3" value="" style="line;strokeWidth=1;fillColor=none;align=left;verticalAlign=middle;spacingTop=-1;spacingLeft=3;spacingRight=3;rotatable=0;labelPosition=right;points=[];portConstraint=eastwest;strokeColor=inherit;" parent="SjIH6w3jb1fZlNOT7QyN-1" vertex="1">
          <mxGeometry y="110" width="225" height="8" as="geometry" />
        </mxCell>
        <mxCell id="SjIH6w3jb1fZlNOT7QyN-4" value="- Check() : bool&#xa;- CreateFace()&#xa;- GetFaceVertices() : TArray&lt;FVector&gt;&#xa;- GetNormal() : FVector&#xa;- GetPositionInDirection() : FVector&#xa;- GetTextureIndex() : int&#xa;+ GetBlockIndex() : int&#xa;+ GetBlocksArray() : TArray&lt;EBlock&gt;&#xa;+ GetBlocksArrayIndex() : int&#xa;# Generate2DHeightMap()&#xa;# GenerateMesh()&#xa;# Setup()" style="text;strokeColor=none;fillColor=none;align=left;verticalAlign=top;spacingLeft=4;spacingRight=4;overflow=hidden;rotatable=0;points=[[0,0.5],[1,0.5]];portConstraint=eastwest;" parent="SjIH6w3jb1fZlNOT7QyN-1" vertex="1">
          <mxGeometry y="118" width="225" height="182" as="geometry" />
        </mxCell>
        <mxCell id="SjIH6w3jb1fZlNOT7QyN-5" value="&lt;&lt;enum&gt;&gt;&#xa;EDirection" style="swimlane;fontStyle=1;align=center;verticalAlign=top;childLayout=stackLayout;horizontal=1;startSize=40;horizontalStack=0;resizeParent=1;resizeParentMax=0;resizeLast=0;collapsible=1;marginBottom=0;" parent="1" vertex="1">
          <mxGeometry x="1032.5" y="736" width="160" height="134" as="geometry" />
        </mxCell>
        <mxCell id="SjIH6w3jb1fZlNOT7QyN-6" value="Forward&#xa;Right&#xa;Back&#xa;Left&#xa;Up&#xa;Down" style="text;strokeColor=none;fillColor=none;align=left;verticalAlign=top;spacingLeft=4;spacingRight=4;overflow=hidden;rotatable=0;points=[[0,0.5],[1,0.5]];portConstraint=eastwest;" parent="SjIH6w3jb1fZlNOT7QyN-5" vertex="1">
          <mxGeometry y="40" width="160" height="94" as="geometry" />
        </mxCell>
        <mxCell id="SjIH6w3jb1fZlNOT7QyN-9" value="&lt;&lt;enum&gt;&gt;&#xa;States" style="swimlane;fontStyle=1;align=center;verticalAlign=top;childLayout=stackLayout;horizontal=1;startSize=40;horizontalStack=0;resizeParent=1;resizeParentMax=0;resizeLast=0;collapsible=1;marginBottom=0;" parent="1" vertex="1">
          <mxGeometry x="635" y="766" width="160" height="104" as="geometry" />
        </mxCell>
        <mxCell id="SjIH6w3jb1fZlNOT7QyN-10" value="Grassland&#xa;Village&#xa;AbandonedBuilding&#xa;Pond" style="text;strokeColor=none;fillColor=none;align=left;verticalAlign=top;spacingLeft=4;spacingRight=4;overflow=hidden;rotatable=0;points=[[0,0.5],[1,0.5]];portConstraint=eastwest;" parent="SjIH6w3jb1fZlNOT7QyN-9" vertex="1">
          <mxGeometry y="40" width="160" height="64" as="geometry" />
        </mxCell>
        <mxCell id="SjIH6w3jb1fZlNOT7QyN-13" value="Extends" style="endArrow=block;endSize=16;endFill=0;html=1;rounded=0;entryX=1;entryY=0.5;entryDx=0;entryDy=0;exitX=0;exitY=0.5;exitDx=0;exitDy=0;" parent="1" source="SjIH6w3jb1fZlNOT7QyN-1" target="Dbm6p59UZtZps0MxOLi0-1" edge="1">
          <mxGeometry width="160" relative="1" as="geometry">
            <mxPoint x="700" y="360" as="sourcePoint" />
            <mxPoint x="580" y="300" as="targetPoint" />
          </mxGeometry>
        </mxCell>
        <mxCell id="SjIH6w3jb1fZlNOT7QyN-14" value="" style="endArrow=diamondThin;endFill=0;endSize=24;html=1;rounded=0;exitX=0.5;exitY=0;exitDx=0;exitDy=0;entryX=0.501;entryY=1.011;entryDx=0;entryDy=0;entryPerimeter=0;" parent="1" source="SjIH6w3jb1fZlNOT7QyN-1" target="Dbm6p59UZtZps0MxOLi0-12" edge="1">
          <mxGeometry width="160" relative="1" as="geometry">
            <mxPoint x="960" y="400" as="sourcePoint" />
            <mxPoint x="940" y="270" as="targetPoint" />
          </mxGeometry>
        </mxCell>
        <mxCell id="SjIH6w3jb1fZlNOT7QyN-15" value="" style="endArrow=diamondThin;endFill=0;endSize=24;html=1;rounded=0;exitX=0;exitY=0.5;exitDx=0;exitDy=0;entryX=1;entryY=0.5;entryDx=0;entryDy=0;" parent="1" source="Dbm6p59UZtZps0MxOLi0-13" target="Dbm6p59UZtZps0MxOLi0-9" edge="1">
          <mxGeometry width="160" relative="1" as="geometry">
            <mxPoint x="1150" y="325" as="sourcePoint" />
            <mxPoint x="940" y="60" as="targetPoint" />
            <Array as="points">
              <mxPoint x="1120" y="445" />
              <mxPoint x="1120" y="145" />
            </Array>
          </mxGeometry>
        </mxCell>
        <mxCell id="SjIH6w3jb1fZlNOT7QyN-19" value="" style="endArrow=none;html=1;edgeStyle=orthogonalEdgeStyle;rounded=0;exitX=0.5;exitY=0;exitDx=0;exitDy=0;entryX=0.25;entryY=1;entryDx=0;entryDy=0;" parent="1" source="Dbm6p59UZtZps0MxOLi0-5" target="Dbm6p59UZtZps0MxOLi0-1" edge="1">
          <mxGeometry relative="1" as="geometry">
            <mxPoint x="350" y="730" as="sourcePoint" />
            <mxPoint x="420" y="630" as="targetPoint" />
          </mxGeometry>
        </mxCell>
        <mxCell id="SjIH6w3jb1fZlNOT7QyN-20" value="1" style="edgeLabel;resizable=0;html=1;align=left;verticalAlign=bottom;" parent="SjIH6w3jb1fZlNOT7QyN-19" connectable="0" vertex="1">
          <mxGeometry x="-1" relative="1" as="geometry">
            <mxPoint x="2" as="offset" />
          </mxGeometry>
        </mxCell>
        <mxCell id="SjIH6w3jb1fZlNOT7QyN-21" value="1" style="edgeLabel;resizable=0;html=1;align=right;verticalAlign=bottom;" parent="SjIH6w3jb1fZlNOT7QyN-19" connectable="0" vertex="1">
          <mxGeometry x="1" relative="1" as="geometry">
            <mxPoint x="-3" y="17" as="offset" />
          </mxGeometry>
        </mxCell>
        <mxCell id="SjIH6w3jb1fZlNOT7QyN-22" value="" style="endArrow=none;html=1;rounded=0;entryX=0.5;entryY=0;entryDx=0;entryDy=0;edgeStyle=orthogonalEdgeStyle;exitX=0.5;exitY=1;exitDx=0;exitDy=0;" parent="1" source="SjIH6w3jb1fZlNOT7QyN-1" target="Dbm6p59UZtZps0MxOLi0-17" edge="1">
          <mxGeometry relative="1" as="geometry">
            <mxPoint x="1040" y="410" as="sourcePoint" />
            <mxPoint x="1250" y="600" as="targetPoint" />
          </mxGeometry>
        </mxCell>
        <mxCell id="SjIH6w3jb1fZlNOT7QyN-23" value="&amp;nbsp;1" style="edgeLabel;resizable=0;html=1;align=left;verticalAlign=bottom;" parent="SjIH6w3jb1fZlNOT7QyN-22" connectable="0" vertex="1">
          <mxGeometry x="-1" relative="1" as="geometry" />
        </mxCell>
        <mxCell id="SjIH6w3jb1fZlNOT7QyN-24" value="1 .. *&amp;nbsp;" style="edgeLabel;resizable=0;html=1;align=right;verticalAlign=bottom;" parent="SjIH6w3jb1fZlNOT7QyN-22" connectable="0" vertex="1">
          <mxGeometry x="1" relative="1" as="geometry">
            <mxPoint x="-2" as="offset" />
          </mxGeometry>
        </mxCell>
        <mxCell id="SjIH6w3jb1fZlNOT7QyN-25" value="" style="edgeStyle=orthogonalEdgeStyle;rounded=0;orthogonalLoop=1;jettySize=auto;html=1;strokeColor=none;" parent="1" source="Dbm6p59UZtZps0MxOLi0-18" edge="1">
          <mxGeometry relative="1" as="geometry">
            <mxPoint x="1050" y="380" as="targetPoint" />
            <Array as="points">
              <mxPoint x="1075" y="425" />
              <mxPoint x="1075" y="543" />
            </Array>
          </mxGeometry>
        </mxCell>
        <mxCell id="SjIH6w3jb1fZlNOT7QyN-27" value="" style="endArrow=none;html=1;edgeStyle=orthogonalEdgeStyle;rounded=0;exitX=0.75;exitY=1;exitDx=0;exitDy=0;entryX=0.5;entryY=0;entryDx=0;entryDy=0;" parent="1" source="SjIH6w3jb1fZlNOT7QyN-1" target="SjIH6w3jb1fZlNOT7QyN-5" edge="1">
          <mxGeometry relative="1" as="geometry">
            <mxPoint x="1040" y="510" as="sourcePoint" />
            <mxPoint x="1210" y="460" as="targetPoint" />
          </mxGeometry>
        </mxCell>
        <mxCell id="SjIH6w3jb1fZlNOT7QyN-28" value="1" style="edgeLabel;resizable=0;html=1;align=left;verticalAlign=bottom;" parent="SjIH6w3jb1fZlNOT7QyN-27" connectable="0" vertex="1">
          <mxGeometry x="-1" relative="1" as="geometry">
            <mxPoint x="2" as="offset" />
          </mxGeometry>
        </mxCell>
        <mxCell id="SjIH6w3jb1fZlNOT7QyN-29" value="1 .. *&amp;nbsp;" style="edgeLabel;resizable=0;html=1;align=right;verticalAlign=bottom;" parent="SjIH6w3jb1fZlNOT7QyN-27" connectable="0" vertex="1">
          <mxGeometry x="1" relative="1" as="geometry">
            <mxPoint x="-1" as="offset" />
          </mxGeometry>
        </mxCell>
        <mxCell id="SjIH6w3jb1fZlNOT7QyN-30" value="" style="endArrow=none;html=1;edgeStyle=orthogonalEdgeStyle;rounded=0;entryX=0.5;entryY=0;entryDx=0;entryDy=0;exitX=0.25;exitY=1;exitDx=0;exitDy=0;" parent="1" source="SjIH6w3jb1fZlNOT7QyN-1" target="SjIH6w3jb1fZlNOT7QyN-9" edge="1">
          <mxGeometry relative="1" as="geometry">
            <mxPoint x="840" y="410" as="sourcePoint" />
            <mxPoint x="1150" y="597" as="targetPoint" />
          </mxGeometry>
        </mxCell>
        <mxCell id="SjIH6w3jb1fZlNOT7QyN-31" value="1" style="edgeLabel;resizable=0;html=1;align=left;verticalAlign=bottom;" parent="SjIH6w3jb1fZlNOT7QyN-30" connectable="0" vertex="1">
          <mxGeometry x="-1" relative="1" as="geometry">
            <mxPoint x="2" as="offset" />
          </mxGeometry>
        </mxCell>
        <mxCell id="SjIH6w3jb1fZlNOT7QyN-32" value="1" style="edgeLabel;resizable=0;html=1;align=right;verticalAlign=bottom;" parent="SjIH6w3jb1fZlNOT7QyN-30" connectable="0" vertex="1">
          <mxGeometry x="1" relative="1" as="geometry">
            <mxPoint x="-3" as="offset" />
          </mxGeometry>
        </mxCell>
      </root>
    </mxGraphModel>
  </diagram>
</mxfile>
